<svg version="1.1" id="mqruler" width="100px" height="100px" style="outline:1px solid blue" viewBox="0 0 100 100" xmlns="http://www.w3.org/2000/svg">
    <g id="ruler-g" class="" fill="transparent">
        <path stroke-width="1" d="
            M0 0 
            A100 100 0 0 1 100 100 
            L0 100 
            L0 0
            "></path>
    <line x1="2" y1="100" x2="2" y2="98" style="stroke-width: 1; stroke: rgb(148, 61, 61);"></line><line x1="4" y1="100" x2="4" y2="98" style="stroke-width: 1; stroke: rgb(148, 61, 61);"></line><line x1="6" y1="100" x2="6" y2="98" style="stroke-width: 1; stroke: rgb(148, 61, 61);"></line><line x1="8" y1="100" x2="8" y2="98" style="stroke-width: 1; stroke: rgb(148, 61, 61);"></line><line x1="10" y1="100" x2="10" y2="95" style="stroke-width: 1; stroke: rgb(148, 61, 61);"></line><line x1="12" y1="100" x2="12" y2="98" style="stroke-width: 1; stroke: rgb(148, 61, 61);"></line><line x1="14" y1="100" x2="14" y2="98" style="stroke-width: 1; stroke: rgb(148, 61, 61);"></line><line x1="16" y1="100" x2="16" y2="98" style="stroke-width: 1; stroke: rgb(148, 61, 61);"></line><line x1="18" y1="100" x2="18" y2="98" style="stroke-width: 1; stroke: rgb(148, 61, 61);"></line><line x1="20" y1="100" x2="20" y2="95" style="stroke-width: 1; stroke: rgb(148, 61, 61);"></line><line x1="22" y1="100" x2="22" y2="98" style="stroke-width: 1; stroke: rgb(148, 61, 61);"></line><line x1="24" y1="100" x2="24" y2="98" style="stroke-width: 1; stroke: rgb(148, 61, 61);"></line><line x1="26" y1="100" x2="26" y2="98" style="stroke-width: 1; stroke: rgb(148, 61, 61);"></line><line x1="28" y1="100" x2="28" y2="98" style="stroke-width: 1; stroke: rgb(148, 61, 61);"></line><line x1="30" y1="100" x2="30" y2="95" style="stroke-width: 1; stroke: rgb(148, 61, 61);"></line><line x1="32" y1="100" x2="32" y2="98" style="stroke-width: 1; stroke: rgb(148, 61, 61);"></line><line x1="34" y1="100" x2="34" y2="98" style="stroke-width: 1; stroke: rgb(148, 61, 61);"></line><line x1="36" y1="100" x2="36" y2="98" style="stroke-width: 1; stroke: rgb(148, 61, 61);"></line><line x1="38" y1="100" x2="38" y2="98" style="stroke-width: 1; stroke: rgb(148, 61, 61);"></line><line x1="40" y1="100" x2="40" y2="95" style="stroke-width: 1; stroke: rgb(148, 61, 61);"></line><line x1="42" y1="100" x2="42" y2="98" style="stroke-width: 1; stroke: rgb(148, 61, 61);"></line><line x1="44" y1="100" x2="44" y2="98" style="stroke-width: 1; stroke: rgb(148, 61, 61);"></line><line x1="46" y1="100" x2="46" y2="98" style="stroke-width: 1; stroke: rgb(148, 61, 61);"></line><line x1="48" y1="100" x2="48" y2="98" style="stroke-width: 1; stroke: rgb(148, 61, 61);"></line><line x1="50" y1="100" x2="50" y2="95" style="stroke-width: 1; stroke: rgb(148, 61, 61);"></line><line x1="52" y1="100" x2="52" y2="98" style="stroke-width: 1; stroke: rgb(148, 61, 61);"></line><line x1="54" y1="100" x2="54" y2="98" style="stroke-width: 1; stroke: rgb(148, 61, 61);"></line><line x1="56" y1="100" x2="56" y2="98" style="stroke-width: 1; stroke: rgb(148, 61, 61);"></line><line x1="58" y1="100" x2="58" y2="98" style="stroke-width: 1; stroke: rgb(148, 61, 61);"></line><line x1="60" y1="100" x2="60" y2="95" style="stroke-width: 1; stroke: rgb(148, 61, 61);"></line><line x1="62" y1="100" x2="62" y2="98" style="stroke-width: 1; stroke: rgb(148, 61, 61);"></line><line x1="64" y1="100" x2="64" y2="98" style="stroke-width: 1; stroke: rgb(148, 61, 61);"></line><line x1="66" y1="100" x2="66" y2="98" style="stroke-width: 1; stroke: rgb(148, 61, 61);"></line><line x1="68" y1="100" x2="68" y2="98" style="stroke-width: 1; stroke: rgb(148, 61, 61);"></line><line x1="70" y1="100" x2="70" y2="95" style="stroke-width: 1; stroke: rgb(148, 61, 61);"></line><line x1="72" y1="100" x2="72" y2="98" style="stroke-width: 1; stroke: rgb(148, 61, 61);"></line><line x1="74" y1="100" x2="74" y2="98" style="stroke-width: 1; stroke: rgb(148, 61, 61);"></line><line x1="76" y1="100" x2="76" y2="98" style="stroke-width: 1; stroke: rgb(148, 61, 61);"></line><line x1="78" y1="100" x2="78" y2="98" style="stroke-width: 1; stroke: rgb(148, 61, 61);"></line><line x1="80" y1="100" x2="80" y2="95" style="stroke-width: 1; stroke: rgb(148, 61, 61);"></line><line x1="82" y1="100" x2="82" y2="98" style="stroke-width: 1; stroke: rgb(148, 61, 61);"></line><line x1="84" y1="100" x2="84" y2="98" style="stroke-width: 1; stroke: rgb(148, 61, 61);"></line><line x1="86" y1="100" x2="86" y2="98" style="stroke-width: 1; stroke: rgb(148, 61, 61);"></line><line x1="88" y1="100" x2="88" y2="98" style="stroke-width: 1; stroke: rgb(148, 61, 61);"></line><line x1="90" y1="100" x2="90" y2="95" style="stroke-width: 1; stroke: rgb(148, 61, 61);"></line><line x1="92" y1="100" x2="92" y2="98" style="stroke-width: 1; stroke: rgb(148, 61, 61);"></line><line x1="94" y1="100" x2="94" y2="98" style="stroke-width: 1; stroke: rgb(148, 61, 61);"></line><line x1="96" y1="100" x2="96" y2="98" style="stroke-width: 1; stroke: rgb(148, 61, 61);"></line><line x1="98" y1="100" x2="98" y2="98" style="stroke-width: 1; stroke: rgb(148, 61, 61);"></line><line x1="100" y1="100" x2="100" y2="95" style="stroke-width: 1; stroke: rgb(148, 61, 61);"></line><line x1="0" y1="0" x2="5" y2="0" style="stroke-width: 1; stroke: rgb(148, 61, 61);"></line><line x1="0" y1="2" x2="2" y2="2" style="stroke-width: 1; stroke: rgb(148, 61, 61);"></line><line x1="0" y1="4" x2="2" y2="4" style="stroke-width: 1; stroke: rgb(148, 61, 61);"></line><line x1="0" y1="6" x2="2" y2="6" style="stroke-width: 1; stroke: rgb(148, 61, 61);"></line><line x1="0" y1="8" x2="2" y2="8" style="stroke-width: 1; stroke: rgb(148, 61, 61);"></line><line x1="0" y1="10" x2="5" y2="10" style="stroke-width: 1; stroke: rgb(148, 61, 61);"></line><line x1="0" y1="12" x2="2" y2="12" style="stroke-width: 1; stroke: rgb(148, 61, 61);"></line><line x1="0" y1="14" x2="2" y2="14" style="stroke-width: 1; stroke: rgb(148, 61, 61);"></line><line x1="0" y1="16" x2="2" y2="16" style="stroke-width: 1; stroke: rgb(148, 61, 61);"></line><line x1="0" y1="18" x2="2" y2="18" style="stroke-width: 1; stroke: rgb(148, 61, 61);"></line><line x1="0" y1="20" x2="5" y2="20" style="stroke-width: 1; stroke: rgb(148, 61, 61);"></line><line x1="0" y1="22" x2="2" y2="22" style="stroke-width: 1; stroke: rgb(148, 61, 61);"></line><line x1="0" y1="24" x2="2" y2="24" style="stroke-width: 1; stroke: rgb(148, 61, 61);"></line><line x1="0" y1="26" x2="2" y2="26" style="stroke-width: 1; stroke: rgb(148, 61, 61);"></line><line x1="0" y1="28" x2="2" y2="28" style="stroke-width: 1; stroke: rgb(148, 61, 61);"></line><line x1="0" y1="30" x2="5" y2="30" style="stroke-width: 1; stroke: rgb(148, 61, 61);"></line><line x1="0" y1="32" x2="2" y2="32" style="stroke-width: 1; stroke: rgb(148, 61, 61);"></line><line x1="0" y1="34" x2="2" y2="34" style="stroke-width: 1; stroke: rgb(148, 61, 61);"></line><line x1="0" y1="36" x2="2" y2="36" style="stroke-width: 1; stroke: rgb(148, 61, 61);"></line><line x1="0" y1="38" x2="2" y2="38" style="stroke-width: 1; stroke: rgb(148, 61, 61);"></line><line x1="0" y1="40" x2="5" y2="40" style="stroke-width: 1; stroke: rgb(148, 61, 61);"></line><line x1="0" y1="42" x2="2" y2="42" style="stroke-width: 1; stroke: rgb(148, 61, 61);"></line><line x1="0" y1="44" x2="2" y2="44" style="stroke-width: 1; stroke: rgb(148, 61, 61);"></line><line x1="0" y1="46" x2="2" y2="46" style="stroke-width: 1; stroke: rgb(148, 61, 61);"></line><line x1="0" y1="48" x2="2" y2="48" style="stroke-width: 1; stroke: rgb(148, 61, 61);"></line><line x1="0" y1="50" x2="5" y2="50" style="stroke-width: 1; stroke: rgb(148, 61, 61);"></line><line x1="0" y1="52" x2="2" y2="52" style="stroke-width: 1; stroke: rgb(148, 61, 61);"></line><line x1="0" y1="54" x2="2" y2="54" style="stroke-width: 1; stroke: rgb(148, 61, 61);"></line><line x1="0" y1="56" x2="2" y2="56" style="stroke-width: 1; stroke: rgb(148, 61, 61);"></line><line x1="0" y1="58" x2="2" y2="58" style="stroke-width: 1; stroke: rgb(148, 61, 61);"></line><line x1="0" y1="60" x2="5" y2="60" style="stroke-width: 1; stroke: rgb(148, 61, 61);"></line><line x1="0" y1="62" x2="2" y2="62" style="stroke-width: 1; stroke: rgb(148, 61, 61);"></line><line x1="0" y1="64" x2="2" y2="64" style="stroke-width: 1; stroke: rgb(148, 61, 61);"></line><line x1="0" y1="66" x2="2" y2="66" style="stroke-width: 1; stroke: rgb(148, 61, 61);"></line><line x1="0" y1="68" x2="2" y2="68" style="stroke-width: 1; stroke: rgb(148, 61, 61);"></line><line x1="0" y1="70" x2="5" y2="70" style="stroke-width: 1; stroke: rgb(148, 61, 61);"></line><line x1="0" y1="72" x2="2" y2="72" style="stroke-width: 1; stroke: rgb(148, 61, 61);"></line><line x1="0" y1="74" x2="2" y2="74" style="stroke-width: 1; stroke: rgb(148, 61, 61);"></line><line x1="0" y1="76" x2="2" y2="76" style="stroke-width: 1; stroke: rgb(148, 61, 61);"></line><line x1="0" y1="78" x2="2" y2="78" style="stroke-width: 1; stroke: rgb(148, 61, 61);"></line><line x1="0" y1="80" x2="5" y2="80" style="stroke-width: 1; stroke: rgb(148, 61, 61);"></line><line x1="0" y1="82" x2="2" y2="82" style="stroke-width: 1; stroke: rgb(148, 61, 61);"></line><line x1="0" y1="84" x2="2" y2="84" style="stroke-width: 1; stroke: rgb(148, 61, 61);"></line><line x1="0" y1="86" x2="2" y2="86" style="stroke-width: 1; stroke: rgb(148, 61, 61);"></line><line x1="0" y1="88" x2="2" y2="88" style="stroke-width: 1; stroke: rgb(148, 61, 61);"></line><line x1="0" y1="90" x2="5" y2="90" style="stroke-width: 1; stroke: rgb(148, 61, 61);"></line><line x1="0" y1="92" x2="2" y2="92" style="stroke-width: 1; stroke: rgb(148, 61, 61);"></line><line x1="0" y1="94" x2="2" y2="94" style="stroke-width: 1; stroke: rgb(148, 61, 61);"></line><line x1="0" y1="96" x2="2" y2="96" style="stroke-width: 1; stroke: rgb(148, 61, 61);"></line><line x1="0" y1="98" x2="2" y2="98" style="stroke-width: 1; stroke: rgb(148, 61, 61);"></line></g>
</svg>
