<svg version="1.1" id="mqruler" style="outline:1px solid blue" xmlns="http://www.w3.org/2000/svg" xmlns:xlink="http://www.w3.org/1999/xlink" viewBox="-125 -125 500 500" enable-background="new 0 0 250 250" xml:space="preserve">
    <g class="ruler">
        <path stroke-width="1" 
            d="
            M0 0 
            A100 100 0 0 1 100 100 
            L0 100 
            L0 0
            "/>
        <line x1="10" y1="100" x2="10" y2="95" style="stroke:rgb(99,99,99);stroke-width:1"/>
        <line x1="20" y1="100" x2="20" y2="95" style="stroke:rgb(99,99,99);stroke-width:1"/>
        <line x1="30" y1="100" x2="30" y2="95" style="stroke:rgb(99,99,99);stroke-width:1"/>
        <line x1="40" y1="100" x2="40" y2="95" style="stroke:rgb(99,99,99);stroke-width:1"/>
        <line x1="50" y1="100" x2="50" y2="95" style="stroke:rgb(99,99,99);stroke-width:1"/>
        <line x1="60" y1="100" x2="60" y2="95" style="stroke:rgb(99,99,99);stroke-width:1"/>
        <line x1="70" y1="100" x2="70" y2="95" style="stroke:rgb(99,99,99);stroke-width:1"/>
        <line x1="80" y1="100" x2="80" y2="95" style="stroke:rgb(99,99,99);stroke-width:1"/>
        <line x1="90" y1="100" x2="90" y2="95" style="stroke:rgb(99,99,99);stroke-width:1"/>

        <line x1="0" y1="10" x2="5" y2="10" style="stroke:rgb(99,99,99);stroke-width:1"/>
        <line x1="0" y1="20" x2="5" y2="20" style="stroke:rgb(99,99,99);stroke-width:1"/>
        <line x1="0" y1="30" x2="5" y2="30" style="stroke:rgb(99,99,99);stroke-width:1"/>
        <line x1="0" y1="40" x2="5" y2="40" style="stroke:rgb(99,99,99);stroke-width:1"/>
        <line x1="0" y1="50" x2="5" y2="50" style="stroke:rgb(99,99,99);stroke-width:1"/>
        <line x1="0" y1="60" x2="5" y2="60" style="stroke:rgb(99,99,99);stroke-width:1"/>
        <line x1="0" y1="70" x2="5" y2="70" style="stroke:rgb(99,99,99);stroke-width:1"/>
        <line x1="0" y1="80" x2="5" y2="80" style="stroke:rgb(99,99,99);stroke-width:1"/>
        <line x1="0" y1="90" x2="5" y2="90" style="stroke:rgb(99,99,99);stroke-width:1"/>
    </g>
</svg>
